<svg width="93" height="16" viewBox="0 0 93 16" fill="none" xmlns="http://www.w3.org/2000/svg">
<g clip-path="url(#clip0_1_72)">
<path d="M15.6 5.87002H10.29C10.14 5.87002 10 5.77002 9.95 5.63002L8.31 0.58002C8.2 0.25002 7.74 0.25002 7.64 0.58002L6 5.63002C5.95 5.77002 5.82 5.87002 5.66 5.87002H0.35C0.00999999 5.87002 -0.13 6.31002 0.14 6.51002L4.43 9.63002C4.55 9.72002 4.61 9.88002 4.56 10.02L2.92 15.07C2.81 15.4 3.19 15.67 3.46 15.46L7.75 12.34C7.87 12.25 8.04 12.25 8.17 12.34L12.46 15.46C12.74 15.66 13.11 15.39 13 15.07L11.36 10.02C11.31 9.87002 11.36 9.72002 11.49 9.63002L15.78 6.51002C16.08 6.31002 15.94 5.87002 15.6 5.87002Z" fill="#F96500"/>
<path d="M34.82 5.87002H29.51C29.36 5.87002 29.22 5.77002 29.17 5.63002L27.53 0.58002C27.42 0.25002 26.96 0.25002 26.86 0.58002L25.22 5.63002C25.17 5.78002 25.04 5.87002 24.88 5.87002H19.57C19.23 5.87002 19.09 6.31002 19.36 6.51002L23.65 9.63002C23.77 9.72002 23.83 9.88002 23.78 10.02L22.14 15.07C22.03 15.4 22.41 15.67 22.68 15.46L26.97 12.34C27.09 12.25 27.26 12.25 27.39 12.34L31.68 15.46C31.96 15.66 32.33 15.39 32.22 15.07L30.58 10.02C30.53 9.87002 30.58 9.72002 30.71 9.63002L35 6.51002C35.3 6.31002 35.16 5.87002 34.82 5.87002Z" fill="#F96500"/>
<path d="M54.03 5.87002H48.72C48.57 5.87002 48.43 5.77002 48.38 5.63002L46.74 0.58002C46.63 0.25002 46.17 0.25002 46.07 0.58002L44.43 5.63002C44.38 5.78002 44.25 5.87002 44.09 5.87002H38.78C38.44 5.87002 38.3 6.31002 38.57 6.51002L42.86 9.63002C42.98 9.72002 43.04 9.88002 42.99 10.02L41.35 15.07C41.24 15.4 41.62 15.67 41.89 15.46L46.18 12.34C46.3 12.25 46.47 12.25 46.6 12.34L50.89 15.46C51.17 15.66 51.54 15.39 51.43 15.07L49.79 10.02C49.74 9.87002 49.79 9.72002 49.92 9.63002L54.21 6.51002C54.52 6.31002 54.38 5.87002 54.03 5.87002Z" fill="#F96500"/>
<path d="M73.59 5.78H68.05C67.89 5.78 67.75 5.68001 67.7 5.53L65.99 0.260005C65.88 -0.0799951 65.4 -0.0799951 65.29 0.260005L63.58 5.53C63.53 5.68001 63.39 5.78 63.23 5.78H57.69C57.33 5.78 57.18 6.24 57.47 6.45L61.95 9.71C62.08 9.8 62.13 9.97001 62.08 10.12L60.37 15.39C60.26 15.73 60.65 16.01 60.94 15.8L65.42 12.54C65.55 12.45 65.72 12.45 65.85 12.54L70.33 15.8C70.62 16.01 71.01 15.73 70.9 15.39L69.19 10.12C69.14 9.97001 69.19 9.8 69.32 9.71L73.8 6.45C74.1 6.24 73.95 5.78 73.59 5.78Z" fill="#F96500"/>
<path d="M92.68 6.51002C92.96 6.31002 92.81 5.87002 92.47 5.87002H87.16C87.01 5.87002 86.87 5.77002 86.82 5.63002L85.18 0.58002C85.07 0.25002 84.61 0.25002 84.51 0.58002L82.87 5.63002C82.82 5.78002 82.69 5.87002 82.53 5.87002H77.22C76.88 5.87002 76.74 6.31002 77.01 6.51002L81.3 9.63002C81.42 9.72002 81.48 9.88002 81.43 10.02L79.79 15.07C79.68 15.4 80.06 15.67 80.33 15.46L84.62 12.34C84.74 12.25 84.91 12.25 85.04 12.34L89.33 15.46C89.61 15.66 89.98 15.39 89.87 15.07L88.23 10.02C88.18 9.87002 88.23 9.72002 88.36 9.63002L92.68 6.51002Z" fill="#F96500"/>
</g>
<defs>
<clipPath id="clip0_1_72">
<rect width="92.83" height="15.88" fill="white"/>
</clipPath>
</defs>
</svg>
