<svg width="16" height="17" viewBox="0 0 16 17" fill="none" xmlns="http://www.w3.org/2000/svg">
<g clip-path="url(#clip0_1_10)">
<path d="M14.0855 16.8594C13.8747 17.0587 13.5385 17.0411 13.3447 16.8242L9.33334 12.2752C9.13961 12.0583 9.15671 11.7125 9.36753 11.5132L11.1111 9.88936C11.3219 9.69005 11.6581 9.70764 11.8519 9.92453L15.8633 14.4735C16.057 14.6904 16.0399 15.0363 15.8291 15.2356L14.0855 16.8594Z" fill="#3C3C3C"/>
<path d="M0 5.95591C0 5.31108 0.102564 4.65453 0.319088 4.0097C1.36182 0.902807 4.65527 -0.744434 7.66952 0.328325C10.057 1.17832 11.5613 3.48798 11.5613 5.95591C11.5613 6.60074 11.4587 7.25729 11.2422 7.90212C10.1994 11.009 6.90598 12.6563 3.89174 11.5835C1.49858 10.7335 0 8.42384 0 5.95591ZM1.56695 5.95591C1.56695 7.80246 2.70655 9.45557 4.40456 10.0594C5.47009 10.4404 6.60969 10.37 7.62393 9.86005C8.63818 9.35591 9.39601 8.47074 9.76068 7.37453C9.91453 6.91143 9.9943 6.4366 9.9943 5.95591C9.9943 4.10936 8.8547 2.46212 7.1567 1.85246C6.09117 1.47729 4.95157 1.54764 3.93732 2.05177C2.92878 2.56177 2.16524 3.44108 1.80057 4.53729C1.64672 5.00039 1.56695 5.47522 1.56695 5.95591Z" fill="#3C3C3C"/>
</g>
<defs>
<clipPath id="clip0_1_10">
<rect width="16" height="17" fill="white"/>
</clipPath>
</defs>
</svg>
